<?xml version="1.0" encoding="UTF-8" standalone="no"?>
<!-- Created with Inkscape (http://www.inkscape.org/) -->

<svg
   xmlns:dc="http://purl.org/dc/elements/1.1/"
   xmlns:cc="http://creativecommons.org/ns#"
   xmlns:rdf="http://www.w3.org/1999/02/22-rdf-syntax-ns#"
   xmlns:svg="http://www.w3.org/2000/svg"
   xmlns="http://www.w3.org/2000/svg"
   xmlns:sodipodi="http://sodipodi.sourceforge.net/DTD/sodipodi-0.dtd"
   xmlns:inkscape="http://www.inkscape.org/namespaces/inkscape"
   id="svg2985"
   version="1.1"
   inkscape:version="0.48.3.1 r9886"
   width="421.25"
   height="140"
   xml:space="preserve"
   sodipodi:docname="Grass_Base_Nepf_model.eps"><metadata
     id="metadata2991"><rdf:RDF><cc:Work
         rdf:about=""><dc:format>image/svg+xml</dc:format><dc:type
           rdf:resource="http://purl.org/dc/dcmitype/StillImage" /></cc:Work></rdf:RDF></metadata><defs
     id="defs2989"><marker
       inkscape:stockid="Arrow1Lend"
       orient="auto"
       refY="0.0"
       refX="0.0"
       id="Arrow1Lend"
       style="overflow:visible;"><path
         id="path4081"
         d="M 0.0,0.0 L 5.0,-5.0 L -12.5,0.0 L 5.0,5.0 L 0.0,0.0 z "
         style="fill-rule:evenodd;stroke:#000000;stroke-width:1.0pt;"
         transform="scale(0.8) rotate(180) translate(12.5,0)" /></marker><clipPath
       clipPathUnits="userSpaceOnUse"
       id="clipPath3001"><path
         d="m 4.16797,2.5 3365.83003,0 0,1117.5 -3365.83003,0 0,-1117.5 z"
         id="path3003" /></clipPath><clipPath
       clipPathUnits="userSpaceOnUse"
       id="clipPath3019"><path
         d="m 33.332,1044.17 3298.338,0 0,-1040.83797 -3298.338,0 0,1040.83797 z"
         id="path3021" /></clipPath><clipPath
       clipPathUnits="userSpaceOnUse"
       id="clipPath3085"><path
         d="m 4,2 0,1118 3366,0 L 3370,2 4,2 z"
         id="path3087" /></clipPath><clipPath
       clipPathUnits="userSpaceOnUse"
       id="clipPath3111"><path
         d="m 33.332,1044.17 3298.338,0 0,-1040.83797 -3298.338,0 0,1040.83797 z"
         id="path3113" /></clipPath><clipPath
       clipPathUnits="userSpaceOnUse"
       id="clipPath3123"><path
         d="m 4,2 0,1118 3366,0 L 3370,2 4,2 z"
         id="path3125" /></clipPath><clipPath
       clipPathUnits="userSpaceOnUse"
       id="clipPath3155"><path
         d="m 33.332,1044.17 3298.338,0 0,-1040.83797 -3298.338,0 0,1040.83797 z"
         id="path3157" /></clipPath><clipPath
       clipPathUnits="userSpaceOnUse"
       id="clipPath3167"><path
         d="m 4,2 0,1118 3366,0 L 3370,2 4,2 z"
         id="path3169" /></clipPath></defs><sodipodi:namedview
     pagecolor="#ffffff"
     bordercolor="#666666"
     borderopacity="1"
     objecttolerance="10"
     gridtolerance="10"
     guidetolerance="10"
     inkscape:pageopacity="0"
     inkscape:pageshadow="2"
     inkscape:window-width="640"
     inkscape:window-height="480"
     id="namedview2987"
     showgrid="false" /><g
     id="g2993"
     inkscape:groupmode="layer"
     inkscape:label="ink_ext_XXXXXX"
     transform="matrix(1.25,0,0,-1.25,0,140)"><path
       inkscape:connector-curvature="0"
       id="path3005"
       style="fill:#ffffff;fill-opacity:1;fill-rule:nonzero;stroke:none"
       d="m -238.77111,-99.472602 779.13291,0 0,323.805932 -779.13291,0 0,-323.805932 z" /><path
       inkscape:connector-curvature="0"
       id="path3007"
       style="fill:#ffffff;fill-opacity:1;fill-rule:evenodd;stroke:none"
       d="m -232.21272,-98.989292 763.50779,0 0,301.349602 -763.50779,0 0,-301.349602 z" /><path
       inkscape:connector-curvature="0"
       id="path3009"
       style="fill:none;stroke:#ffffff;stroke-width:1.03594887;stroke-linecap:butt;stroke-linejoin:round;stroke-miterlimit:10;stroke-opacity:1;stroke-dasharray:none"
       d="m -232.21272,-98.989292 0,301.350172 763.50779,0 0,-301.350172 -763.50779,0" /><g
       id="g3081"
       transform="matrix(0.23148314,0,0,0.28975922,-239.73592,-100.197)"><g
         clip-path="url(#clipPath3085)"
         id="g3083"><g
           transform="scale(10,10)"
           id="g3089"><text
             id="text3091"
             transform="matrix(1,0,0,-1,137.667,18.5832)"><tspan
               id="tspan3093"
               y="0"
               x="0"
               style="font-size:7px;font-variant:normal;font-weight:normal;writing-mode:lr-tb;fill:#000000;fill-opacity:1;fill-rule:nonzero;stroke:none;font-family:mwa_cmr10;-inkscape-font-specification:mwa_cmr10">ˆ</tspan></text>
<text
             id="text3095"
             transform="matrix(1,0,0,-1,137.5002,17.3332)"><tspan
               id="tspan3097"
               y="0"
               x="0"
               style="font-size:7px;font-variant:normal;font-weight:normal;writing-mode:lr-tb;fill:#000000;fill-opacity:1;fill-rule:nonzero;stroke:none;font-family:mwa_cmmi10;-inkscape-font-specification:mwa_cmmi10">t</tspan></text>
<text
             id="text3099"
             transform="matrix(1,0,0,-1,146.167,10.5832)"><tspan
               id="tspan3101"
               y="0"
               x="0"
               style="font-size:7px;font-variant:normal;font-weight:normal;writing-mode:lr-tb;fill:#000000;fill-opacity:1;fill-rule:nonzero;stroke:none;font-family:mwa_cmr10;-inkscape-font-specification:mwa_cmr10">ˆ</tspan></text>
<text
             id="text3103"
             transform="matrix(1,0,0,-1,145.75021,10.5832)"><tspan
               id="tspan3105"
               y="0"
               x="0"
               style="font-size:7px;font-variant:normal;font-weight:normal;writing-mode:lr-tb;fill:#000000;fill-opacity:1;fill-rule:nonzero;stroke:none;font-family:mwa_cmmi10;-inkscape-font-specification:mwa_cmmi10">n</tspan></text>
</g></g></g><g
       id="g3107"
       transform="matrix(0.23148314,0,0,0.28975922,-239.73592,-100.197)"><g
         clip-path="url(#clipPath3111)"
         id="g3109"><path
           inkscape:connector-curvature="0"
           id="path3115"
           style="fill:none;stroke:#000000;stroke-width:5;stroke-linecap:butt;stroke-linejoin:round;stroke-miterlimit:10;stroke-opacity:1;stroke-dasharray:none"
           d="m 811.668,104.168 0,198.332" /><path
           inkscape:connector-curvature="0"
           id="path3117"
           style="fill:none;stroke:#000000;stroke-width:5;stroke-linecap:butt;stroke-linejoin:round;stroke-miterlimit:10;stroke-opacity:1;stroke-dasharray:none"
           d="m 811.668,104.168 248.332,0" /></g></g><g
       id="g3119"
       transform="matrix(0.23148314,0,0,0.28975922,-54.773274,-96.323436)"><g
         clip-path="url(#clipPath3123)"
         id="g3121"><g
           transform="scale(10,10)"
           id="g3127"><text
             id="text3129"
             transform="matrix(1,0,0,-1,84.4168,20.9168)"><tspan
               id="tspan3131"
               y="0"
               x="0"
               style="font-size:7px;font-variant:normal;font-weight:normal;writing-mode:lr-tb;fill:#000000;fill-opacity:1;fill-rule:nonzero;stroke:none;font-family:mwa_cmr10;-inkscape-font-specification:mwa_cmr10">(</tspan></text>
<text
             id="text3133"
             transform="matrix(1,0,0,-1,87.58321,20.9168)"><tspan
               id="tspan3135"
               sodipodi:role="line"
               y="0"
               x="0 3.5 7"
               style="font-size:7px;font-variant:normal;font-weight:normal;writing-mode:lr-tb;fill:#000000;fill-opacity:1;fill-rule:nonzero;stroke:none;font-family:mwa_cmmi10;-inkscape-font-specification:mwa_cmmi10">y,v</tspan></text>
<text
             id="text3137"
             transform="matrix(1,0,0,-1,98.00001,20.9168)"><tspan
               id="tspan3139"
               y="0"
               x="0"
               style="font-size:7px;font-variant:normal;font-weight:normal;writing-mode:lr-tb;fill:#000000;fill-opacity:1;fill-rule:nonzero;stroke:none;font-family:mwa_cmr10;-inkscape-font-specification:mwa_cmr10">)</tspan><tspan
               id="tspan3141"
               y="9.5835896"
               x="-1.9168"
               style="font-size:7px;font-variant:normal;font-weight:normal;writing-mode:lr-tb;fill:#000000;fill-opacity:1;fill-rule:nonzero;stroke:none;font-family:mwa_cmr10;-inkscape-font-specification:mwa_cmr10">(</tspan></text>
<text
             id="text3143"
             transform="matrix(1,0,0,-1,99.25001,11.33321)"><tspan
               id="tspan3145"
               sodipodi:role="line"
               y="0"
               x="0 4.0000029 7.5000029"
               style="font-size:7px;font-variant:normal;font-weight:normal;writing-mode:lr-tb;fill:#000000;fill-opacity:1;fill-rule:nonzero;stroke:none;font-family:mwa_cmmi10;-inkscape-font-specification:mwa_cmmi10">x,u</tspan></text>
<text
             id="text3147"
             transform="matrix(1,0,0,-1,110.75001,11.33321)"><tspan
               id="tspan3149"
               y="0"
               x="0"
               style="font-size:7px;font-variant:normal;font-weight:normal;writing-mode:lr-tb;fill:#000000;fill-opacity:1;fill-rule:nonzero;stroke:none;font-family:mwa_cmr10;-inkscape-font-specification:mwa_cmr10">)</tspan></text>
</g></g></g><g
       id="g3151"
       transform="matrix(0.23148314,0,0,0.28975922,-239.73592,-100.197)"><g
         clip-path="url(#clipPath3155)"
         id="g3153"><path
           inkscape:connector-curvature="0"
           id="path3159"
           style="fill:none;stroke:#000000;stroke-width:5;stroke-linecap:butt;stroke-linejoin:round;stroke-miterlimit:10;stroke-opacity:1;stroke-dasharray:5, 40;stroke-dashoffset:0"
           d="m 33.332,995.832 949.168,0" /><path
           inkscape:connector-curvature="0"
           id="path3161"
           style="fill:none;stroke:#000000;stroke-width:5;stroke-linecap:butt;stroke-linejoin:round;stroke-miterlimit:10;stroke-opacity:1;stroke-dasharray:5, 40;stroke-dashoffset:0"
           d="m 33.332,343.332 421.668,0" /></g></g><g
       id="g3163"
       transform="matrix(0.23148314,0,0,0.28975922,-239.73592,-100.197)"><g
         clip-path="url(#clipPath3167)"
         id="g3165"><g
           transform="scale(10,10)"
           id="g3171"><text
             id="text3173"
             transform="matrix(1,0,0,-1,9.8332,37.3332)"><tspan
               id="tspan3175"
               y="0"
               x="0"
               style="font-size:9px;font-variant:normal;font-weight:normal;writing-mode:lr-tb;fill:#000000;fill-opacity:1;fill-rule:nonzero;stroke:none;font-family:mwa_cmmi10;-inkscape-font-specification:mwa_cmmi10">y</tspan></text>
<text
             id="text3177"
             transform="matrix(1,0,0,-1,16.66679,37.3332)"><tspan
               id="tspan3179"
               y="0"
               x="0"
               style="font-size:9px;font-variant:normal;font-weight:normal;writing-mode:lr-tb;fill:#000000;fill-opacity:1;fill-rule:nonzero;stroke:none;font-family:mwa_cmr10;-inkscape-font-specification:mwa_cmr10">=</tspan></text>
<text
             id="text3181"
             transform="matrix(1,0,0,-1,26.3332,37.3332)"><tspan
               id="tspan3183"
               y="0"
               x="0"
               style="font-size:9px;font-variant:normal;font-weight:normal;writing-mode:lr-tb;fill:#000000;fill-opacity:1;fill-rule:nonzero;stroke:none;font-family:mwa_cmmi10;-inkscape-font-specification:mwa_cmmi10">h</tspan></text>
<text
             id="text3185"
             transform="matrix(1,0,0,-1,31.0832,35.91679)"><tspan
               id="tspan3187"
               y="0"
               x="0"
               style="font-size:6.30000019px;font-variant:normal;font-weight:normal;writing-mode:lr-tb;fill:#000000;fill-opacity:1;fill-rule:nonzero;stroke:none;font-family:mwa_cmmi10;-inkscape-font-specification:mwa_cmmi10">g</tspan></text>
<text
             id="text3189"
             transform="matrix(1,0,0,-1,29.66679,99.83319)"><tspan
               id="tspan3191"
               y="0"
               x="0"
               style="font-size:9px;font-variant:normal;font-weight:normal;writing-mode:lr-tb;fill:#000000;fill-opacity:1;fill-rule:nonzero;stroke:none;font-family:mwa_cmmi10;-inkscape-font-specification:mwa_cmmi10">y</tspan></text>
<text
             id="text3193"
             transform="matrix(1,0,0,-1,36.49999,99.83319)"><tspan
               id="tspan3195"
               sodipodi:role="line"
               y="0"
               x="0 9.6668015"
               style="font-size:9px;font-variant:normal;font-weight:normal;writing-mode:lr-tb;fill:#000000;fill-opacity:1;fill-rule:nonzero;stroke:none;font-family:mwa_cmr10;-inkscape-font-specification:mwa_cmr10">=2</tspan></text>
<text
             id="text3197"
             transform="matrix(1,0,0,-1,50.91679,99.83319)"><tspan
               id="tspan3199"
               y="0"
               x="0"
               style="font-size:9px;font-variant:normal;font-weight:normal;writing-mode:lr-tb;fill:#000000;fill-opacity:1;fill-rule:nonzero;stroke:none;font-family:mwa_cmmi10;-inkscape-font-specification:mwa_cmmi10">H</tspan></text>
</g></g></g><path
       style="fill:none;stroke:#000000;stroke-width:1px;stroke-linecap:butt;stroke-linejoin:miter;stroke-opacity:1"
       d="M 15.736351,28.635057 z"
       id="path5086"
       inkscape:connector-curvature="0"
       transform="matrix(0.8,0,0,-0.8,0,112)" /><g
       id="g5271"
       transform="translate(26.146552,105.80747)"><path
         d="m -231.24433,-100.92607 0,301.35017"
         style="fill:none;stroke:#000000;stroke-width:1.03594887;stroke-linecap:butt;stroke-linejoin:round;stroke-miterlimit:10;stroke-opacity:1;stroke-dasharray:none"
         id="path3013"
         inkscape:connector-curvature="0" /><g
         transform="translate(0,-1.6)"
         id="g5222"><path
           inkscape:connector-curvature="0"
           id="path3011"
           style="fill:none;stroke:#000000;stroke-width:1.03594887;stroke-linecap:butt;stroke-linejoin:round;stroke-miterlimit:10;stroke-opacity:1;stroke-dasharray:none"
           d="m -232.21272,-98.989292 763.50779,0" /><g
           id="g5175"
           transform="translate(0,-1.6)"><path
             inkscape:connector-curvature="0"
             id="path4902"
             d="m -227.86542,163.32126 216.683833,0"
             style="fill:none;stroke:#000000;stroke-width:1.11690104;stroke-linecap:butt;stroke-linejoin:miter;stroke-miterlimit:4;stroke-opacity:1;stroke-dasharray:6.70140619, 6.70140619;stroke-dashoffset:0;marker-end:url(#Arrow1Lend)" /><path
             style="fill:none;stroke:#000000;stroke-width:1.0931294;stroke-linecap:butt;stroke-linejoin:miter;stroke-miterlimit:4;stroke-opacity:1;stroke-dasharray:6.55877631, 6.55877631;stroke-dashoffset:0;marker-end:url(#Arrow1Lend)"
             d="m -229.46542,139.32126 207.558375,0"
             id="path5088"
             inkscape:connector-curvature="0" /><path
             inkscape:connector-curvature="0"
             id="path5090"
             d="m -229.46542,110.52126 192.887236,0"
             style="fill:none;stroke:#000000;stroke-width:1.05378783;stroke-linecap:butt;stroke-linejoin:miter;stroke-miterlimit:4;stroke-opacity:1;stroke-dasharray:6.32272703, 6.32272703;stroke-dashoffset:0;marker-end:url(#Arrow1Lend)" /><path
             style="fill:none;stroke:#000000;stroke-width:1.148;stroke-linecap:butt;stroke-linejoin:miter;stroke-miterlimit:4;stroke-opacity:1;stroke-dasharray:6.888, 6.888;stroke-dashoffset:0;marker-end:url(#Arrow1Lend)"
             d="m -229.46542,78.52126 169.653363,0"
             id="path5092"
             inkscape:connector-curvature="0" /><path
             inkscape:connector-curvature="0"
             id="path5094"
             d="m -229.46542,48.12126 134.625722,0"
             style="fill:none;stroke:#000000;stroke-width:1.03999996;stroke-linecap:butt;stroke-linejoin:miter;stroke-miterlimit:4;stroke-opacity:1;stroke-dasharray:6.24, 6.24;stroke-dashoffset:0;marker-end:url(#Arrow1Lend)" /><path
             style="fill:none;stroke:#000000;stroke-width:1.148;stroke-linecap:butt;stroke-linejoin:miter;stroke-miterlimit:4;stroke-opacity:1;stroke-dasharray:6.888, 6.888;stroke-dashoffset:0;marker-end:url(#Arrow1Lend)"
             d="m -229.46542,22.52126 97.16182,0"
             id="path5096"
             inkscape:connector-curvature="0" /><path
             style="fill:none;stroke:#000000;stroke-width:1.09280002;stroke-linecap:butt;stroke-linejoin:miter;stroke-miterlimit:4;stroke-opacity:1;stroke-dasharray:6.5568, 6.5568;stroke-dashoffset:0;marker-end:url(#Arrow1Lend)"
             d="m -229.46542,-15.87874 46.79863,0"
             id="path5098"
             inkscape:connector-curvature="0" /><path
             inkscape:connector-curvature="0"
             id="path5100"
             d="m -229.46542,-44.67874 31.38612,0"
             style="fill:none;stroke:#000000;stroke-width:0.9824;stroke-linecap:butt;stroke-linejoin:miter;stroke-miterlimit:4;stroke-opacity:1;stroke-dasharray:5.8944, 5.8944;stroke-dashoffset:0;marker-end:url(#Arrow1Lend)" /><path
             style="fill:none;stroke:#000000;stroke-width:0.91600001;stroke-linecap:butt;stroke-linejoin:miter;stroke-miterlimit:4;stroke-opacity:1;stroke-dasharray:5.496, 5.496;stroke-dashoffset:0;marker-end:url(#Arrow1Lend)"
             d="m -229.46542,-75.07874 23.61906,0"
             id="path5102"
             inkscape:connector-curvature="0" /><g
             transform="translate(0,1.6)"
             id="g5140"><g
               id="g3015"
               transform="matrix(0.23148314,0,0,0.28975922,-239.73592,-100.197)"><g
                 clip-path="url(#clipPath3019)"
                 id="g3017"><path
                   inkscape:connector-curvature="0"
                   id="path3023"
                   style="fill:none;stroke:#4dff4d;stroke-width:15;stroke-linecap:butt;stroke-linejoin:round;stroke-miterlimit:10;stroke-opacity:1;stroke-dasharray:none"
                   d="m 149.168,4.16797 0,331.66403" /><path
                   inkscape:connector-curvature="0"
                   id="path3025"
                   style="fill:none;stroke:#4dff4d;stroke-width:15;stroke-linecap:butt;stroke-linejoin:round;stroke-miterlimit:10;stroke-opacity:1;stroke-dasharray:none"
                   d="m 281.668,4.16797 0,331.66403" /><path
                   inkscape:connector-curvature="0"
                   id="path3027"
                   style="fill:none;stroke:#4dff4d;stroke-width:15;stroke-linecap:butt;stroke-linejoin:round;stroke-miterlimit:10;stroke-opacity:1;stroke-dasharray:none"
                   d="m 414.168,4.16797 0,331.66403" /><path
                   inkscape:connector-curvature="0"
                   id="path3029"
                   style="fill:none;stroke:#4dff4d;stroke-width:15;stroke-linecap:butt;stroke-linejoin:round;stroke-miterlimit:10;stroke-opacity:1;stroke-dasharray:none"
                   d="m 546.668,4.16797 0,331.66403" /><path
                   inkscape:connector-curvature="0"
                   id="path3031"
                   style="fill:none;stroke:#4dff4d;stroke-width:15;stroke-linecap:butt;stroke-linejoin:round;stroke-miterlimit:10;stroke-opacity:1;stroke-dasharray:none"
                   d="m 679.168,4.16797 0,331.66403" /><path
                   inkscape:connector-curvature="0"
                   id="path3033"
                   style="fill:none;stroke:#4dff4d;stroke-width:15;stroke-linecap:butt;stroke-linejoin:round;stroke-miterlimit:10;stroke-opacity:1;stroke-dasharray:none"
                   d="m 811.668,4.16797 0,331.66403" /><path
                   inkscape:connector-curvature="0"
                   id="path3035"
                   style="fill:none;stroke:#4dff4d;stroke-width:15;stroke-linecap:butt;stroke-linejoin:round;stroke-miterlimit:10;stroke-opacity:1;stroke-dasharray:none"
                   d="m 944.168,4.16797 0,331.66403" /><path
                   inkscape:connector-curvature="0"
                   id="path3037"
                   style="fill:none;stroke:#4dff4d;stroke-width:15;stroke-linecap:butt;stroke-linejoin:round;stroke-miterlimit:10;stroke-opacity:1;stroke-dasharray:none"
                   d="m 1076.67,4.16797 0,331.66403" /><path
                   inkscape:connector-curvature="0"
                   id="path3039"
                   style="fill:none;stroke:#4dff4d;stroke-width:15;stroke-linecap:butt;stroke-linejoin:round;stroke-miterlimit:10;stroke-opacity:1;stroke-dasharray:none"
                   d="m 1209.17,4.16797 0,331.66403" /><path
                   inkscape:connector-curvature="0"
                   id="path3041"
                   style="fill:none;stroke:#4dff4d;stroke-width:15;stroke-linecap:butt;stroke-linejoin:round;stroke-miterlimit:10;stroke-opacity:1;stroke-dasharray:none"
                   d="m 1341.67,4.16797 0,331.66403" /><path
                   inkscape:connector-curvature="0"
                   id="path3043"
                   style="fill:none;stroke:#4dff4d;stroke-width:15;stroke-linecap:butt;stroke-linejoin:round;stroke-miterlimit:10;stroke-opacity:1;stroke-dasharray:none"
                   d="m 1474.17,4.16797 0,331.66403" /><path
                   inkscape:connector-curvature="0"
                   id="path3045"
                   style="fill:none;stroke:#4dff4d;stroke-width:15;stroke-linecap:butt;stroke-linejoin:round;stroke-miterlimit:10;stroke-opacity:1;stroke-dasharray:none"
                   d="m 1607.5,4.16797 0,331.66403" /><path
                   inkscape:connector-curvature="0"
                   id="path3047"
                   style="fill:none;stroke:#4dff4d;stroke-width:15;stroke-linecap:butt;stroke-linejoin:round;stroke-miterlimit:10;stroke-opacity:1;stroke-dasharray:none"
                   d="m 1740,4.16797 0,331.66403" /><path
                   inkscape:connector-curvature="0"
                   id="path3049"
                   style="fill:none;stroke:#4dff4d;stroke-width:15;stroke-linecap:butt;stroke-linejoin:round;stroke-miterlimit:10;stroke-opacity:1;stroke-dasharray:none"
                   d="m 1872.5,4.16797 0,331.66403" /><path
                   inkscape:connector-curvature="0"
                   id="path3051"
                   style="fill:none;stroke:#4dff4d;stroke-width:15;stroke-linecap:butt;stroke-linejoin:round;stroke-miterlimit:10;stroke-opacity:1;stroke-dasharray:none"
                   d="m 2005,4.16797 0,331.66403" /><path
                   inkscape:connector-curvature="0"
                   id="path3053"
                   style="fill:none;stroke:#4dff4d;stroke-width:15;stroke-linecap:butt;stroke-linejoin:round;stroke-miterlimit:10;stroke-opacity:1;stroke-dasharray:none"
                   d="m 2137.5,4.16797 0,331.66403" /><path
                   inkscape:connector-curvature="0"
                   id="path3055"
                   style="fill:none;stroke:#4dff4d;stroke-width:15;stroke-linecap:butt;stroke-linejoin:round;stroke-miterlimit:10;stroke-opacity:1;stroke-dasharray:none"
                   d="m 2270,4.16797 0,331.66403" /><path
                   inkscape:connector-curvature="0"
                   id="path3057"
                   style="fill:none;stroke:#4dff4d;stroke-width:15;stroke-linecap:butt;stroke-linejoin:round;stroke-miterlimit:10;stroke-opacity:1;stroke-dasharray:none"
                   d="m 2402.5,4.16797 0,331.66403" /><path
                   inkscape:connector-curvature="0"
                   id="path3059"
                   style="fill:none;stroke:#4dff4d;stroke-width:15;stroke-linecap:butt;stroke-linejoin:round;stroke-miterlimit:10;stroke-opacity:1;stroke-dasharray:none"
                   d="m 2535,4.16797 0,331.66403" /><path
                   inkscape:connector-curvature="0"
                   id="path3061"
                   style="fill:none;stroke:#4dff4d;stroke-width:15;stroke-linecap:butt;stroke-linejoin:round;stroke-miterlimit:10;stroke-opacity:1;stroke-dasharray:none"
                   d="m 2667.5,4.16797 0,331.66403" /><path
                   inkscape:connector-curvature="0"
                   id="path3063"
                   style="fill:none;stroke:#4dff4d;stroke-width:15;stroke-linecap:butt;stroke-linejoin:round;stroke-miterlimit:10;stroke-opacity:1;stroke-dasharray:none"
                   d="m 2800,4.16797 0,331.66403" /><path
                   inkscape:connector-curvature="0"
                   id="path3065"
                   style="fill:none;stroke:#4dff4d;stroke-width:15;stroke-linecap:butt;stroke-linejoin:round;stroke-miterlimit:10;stroke-opacity:1;stroke-dasharray:none"
                   d="m 2932.5,4.16797 0,331.66403" /><path
                   inkscape:connector-curvature="0"
                   id="path3067"
                   style="fill:none;stroke:#4dff4d;stroke-width:15;stroke-linecap:butt;stroke-linejoin:round;stroke-miterlimit:10;stroke-opacity:1;stroke-dasharray:none"
                   d="m 3065,4.16797 0,331.66403" /><path
                   inkscape:connector-curvature="0"
                   id="path3069"
                   style="fill:none;stroke:#4dff4d;stroke-width:15;stroke-linecap:butt;stroke-linejoin:round;stroke-miterlimit:10;stroke-opacity:1;stroke-dasharray:none"
                   d="m 3197.5,4.16797 0,331.66403" /><path
                   inkscape:connector-curvature="0"
                   id="path3071"
                   style="fill:none;stroke:#4dff4d;stroke-width:15;stroke-linecap:butt;stroke-linejoin:round;stroke-miterlimit:10;stroke-opacity:1;stroke-dasharray:none"
                   d="m 3330.83,4.16797 0,331.66403" /><path
                   inkscape:connector-curvature="0"
                   id="path3073"
                   style="fill:none;stroke:#000000;stroke-width:10;stroke-linecap:butt;stroke-linejoin:round;stroke-miterlimit:10;stroke-opacity:1;stroke-dasharray:none"
                   d="m 384.168,367.5 3.332,2.5 4.168,1.668 3.332,1.664 4.168,2.5 4.164,1.668 3.336,2.5 4.164,1.668 3.336,1.664 4.164,2.5 3.336,1.668 4.164,1.668 3.336,2.5 4.164,1.664 3.336,2.5 4.164,1.668 3.336,1.668 4.164,2.5 3.336,1.664 4.164,1.668 3.336,2.5 3.332,1.668 4.168,1.664 3.332,2.5 3.332,1.668 4.168,2.5 3.332,1.668 3.336,1.664 3.332,2.5 4.168,1.668 3.332,1.668 3.332,2.5 3.336,1.664 4.164,2.5 3.336,1.668 3.332,1.668 3.332,2.5 3.336,1.664 3.332,1.668 3.332,2.5 3.336,1.668 3.332,1.664 4.168,2.5 3.332,1.668 3.332,2.5 3.336,1.668 3.332,1.664 3.332,2.5 3.336,1.668 3.332,1.668 2.5,2.5 3.332,1.664 3.336,2.5 3.332,1.668 3.332,1.668 3.336,2.5 3.332,1.664 3.332,1.668 2.5,2.5 3.336,1.668 3.332,2.5 3.332,1.664 3.336,1.668 2.5,2.5 3.332,1.668 3.332,1.664 2.5,2.5 3.336,1.668 3.332,1.668 2.5,2.5 3.332,1.664 3.336,2.5 2.5,1.668 3.332,1.668 2.5,2.5 3.332,1.664 3.336,1.668 2.5,2.5 3.332,1.668 2.5,2.5 3.332,1.664 2.5,1.668 3.336,2.5 2.5,1.668 2.5,1.664 3.332,2.5 2.5,1.668 3.332,1.668 2.5,2.5 2.5,1.664 3.336,2.5 2.5,1.668 2.5,1.668 3.332,2.5 2.5,1.664 2.5,1.668 2.5,2.5 3.332,1.668 2.5,2.5 2.5,1.664 2.5,1.668 2.5,2.5 3.336,1.668 2.5,1.664 2.5,2.5 2.5,1.668 2.5,1.668 2.5,2.5 2.5,1.664 2.5,2.5 2.5,1.668 2.5,1.668 2.5,2.5 2.5,1.664 2.5,1.668 2.5,2.5 2.5,1.668 2.5,2.5 2.5,1.664 2.5,1.668 2.5,2.5 2.5,1.668 2.5,1.664 2.5,2.5 2.5,1.668 1.664,1.668 2.5,2.5 2.5,1.664 2.5,2.5 1.668,1.668 2.5,1.668 2.5,2.5 2.5,1.664 1.668,1.668 2.5,2.5 2.5,1.668 1.664,2.5 2.5,1.664 2.5,1.668 1.668,2.5 2.5,1.668 2.5,1.664 1.668,2.5 2.5,1.668 1.664,1.668 2.5,2.5 1.668,1.664 2.5,2.5 1.668,1.668 2.5,1.668 1.664,2.5 2.5,1.664 1.668,1.668 1.668,2.5 2.5,1.668 1.664,2.5 2.5,1.664 1.668,1.668 1.668,2.5 2.5,1.668 1.664,1.664 1.668,2.5 1.668,1.668 2.5,2.5 1.664,1.668 1.668,1.664 1.668,2.5 2.5,1.668 1.664,1.668 1.668,2.5 1.668,1.664 1.664,1.668 1.668,2.5 1.668,1.668 2.5,2.5 1.664,1.664 1.668,1.668 1.668,2.5 1.664,1.668 1.668,1.664 1.668,2.5 1.664,1.668 1.668,2.5 1.668,1.668 1.664,1.664 1.668,2.5 1.668,1.668 0.832,1.668 1.668,2.5 1.664,1.664 1.668,1.668 1.668,2.5 1.664,1.668 1.668,2.5 0.832,1.664 1.668,1.668 1.668,2.5 1.664,1.668 0.836,1.664 1.664,2.5 1.668,1.668 1.668,2.5 0.832,1.668 1.668,1.664 1.664,2.5 0.836,1.668 1.664,1.668 0.836,2.5 1.664,1.664 1.668,1.668 0.832,2.5 1.668,1.668 0.832,2.5 1.668,1.664 0.832,1.668 1.668,2.5 0.832,1.668 1.668,1.664 0.832,2.5 1.668,1.668 0.832,2.5 0.836,1.668 1.664,1.664 0.836,2.5 1.664,1.668 0.836,1.668 0.832,2.5 0.832,1.664 1.668,1.668 0.832,2.5 0.836,1.668 1.664,2.5 0.836,1.664 0.832,1.668 0.832,2.5 0.836,1.668 1.664,1.664 0.836,2.5 0.832,1.668 0.832,2.5 0.836,1.668 0.832,1.664 0.832,2.5 0.836,1.668 1.664,1.668 0.836,2.5 0.832,1.664 0.832,1.668 0.836,2.5 0.832,1.668 0.832,2.5 0.836,1.664 0,1.668 0.832,2.5 0.832,1.668 0.836,1.664 0.832,2.5 0.832,1.668 0.836,2.5 0.832,1.668 0,1.664 0.832,2.5 0.836,1.668 0.832,1.668 0.832,2.5 0,1.664 0.836,1.668 0.832,2.5 0.832,1.668 0,2.5 0.836,1.664 0.832,1.668 0,2.5 0.832,1.668 0,1.664 0.836,2.5 0.832,1.668 0,2.5 0.832,1.668 0,1.664 0.836,2.5 0,1.668 0.832,1.668 0,2.5 0.832,1.664 0,2.5 0.836,1.668 0,4.168 0.832,1.664 0,1.668 0.832,2.5 0,3.332 0.836,2.5 0,5.836 0.832,1.664 0,5.836 0.832,2.5 0,10 0.836,1.664 0,14.168" /><path
                   inkscape:connector-curvature="0"
                   id="path3075"
                   style="fill:none;stroke:#000000;stroke-width:10;stroke-linecap:butt;stroke-linejoin:round;stroke-miterlimit:10;stroke-opacity:1;stroke-dasharray:none"
                   d="m 145.832,4.16797 0,24.16403 0.836,1.668 0,15.832 0.832,2.5 0,9.168 0.832,2.5 0,7.5 0.836,2.5 0,5.832 0.832,1.668 0,4.168 0.832,1.664 0,5.836 0.836,2.5 0,3.332 0.832,2.5 0,4.168 0.832,1.664 0,1.668 0.836,2.5 0,3.332 0.832,2.5 0,1.668 0.832,2.5 0,1.668 0.836,1.664 0,2.5 0.832,1.668 0,1.668 0.832,2.5 0,1.664 0.836,1.668 0,2.5 0.832,1.668 0,2.5 0.832,1.664 0,1.668 0.836,2.5 0.832,1.668 0,1.664 0.832,2.5 0,1.668 0.836,2.5 0.832,1.668 0,1.664 0.832,2.5 0.836,1.668 0.832,1.668 0,2.5 0.832,1.664 0.836,1.668 0.832,2.5 0.832,1.668 0,2.5 0.836,1.664 0.832,1.668 0.832,2.5 0.836,1.668 0.832,1.664 0.832,2.5 0.836,1.668 0.832,2.5 0.832,1.668 0.836,1.664 0.832,2.5 0.832,1.668 0.836,1.668 0.832,2.5 0.832,1.664 0.836,1.668 0.832,2.5 1.668,1.668 0.832,2.5 0.832,1.664 0.836,1.668 1.664,2.5 0.836,1.668 0.832,1.664 1.668,2.5 0.832,1.668 0.832,2.5 1.668,1.668 0.832,1.664 1.668,2.5 0.832,1.668 1.668,1.668 1.668,2.5 0.832,1.664 1.668,2.5 1.664,1.668 1.668,1.668 0.832,2.5 1.668,1.664 1.668,1.668 1.664,2.5 1.668,1.668 1.668,1.664 1.664,2.5 1.668,1.668 1.668,2.5 1.664,1.668 2.5,1.664 1.668,2.5 1.668,1.668 2.5,1.668 1.664,2.5 1.668,1.664 2.5,2.5 2.5,1.668 1.668,1.668 2.5,2.5 2.5,1.664 2.5,1.668 1.664,2.5 2.5,1.668 2.5,1.664 2.5,2.5 3.336,1.668 2.5,2.5 2.5,1.668 3.332,1.664 2.5,2.5 3.332,1.668 2.5,1.668 3.336,2.5 3.332,1.664 3.332,2.5 3.336,1.668 3.332,1.668 3.332,2.5 4.168,1.664 3.332,1.668 3.336,2.5 4.164,1.668 4.168,1.664 4.168,2.5 4.164,1.668 4.168,2.5 3.332,1.668 4.168,1.664 4.168,2.5 4.164,1.668 4.168,1.668 3.332,2.5 4.168,1.664 4.168,2.5 4.164,1.668 3.336,1.668 4.164,2.5 4.168,1.664 4.168,1.668" /><path
                   inkscape:connector-curvature="0"
                   id="path3077"
                   style="fill:none;stroke:#000000;stroke-width:5;stroke-linecap:butt;stroke-linejoin:round;stroke-miterlimit:10;stroke-opacity:1;stroke-dasharray:none"
                   d="m 1341.67,104.168 0,145.832" /><path
                   inkscape:connector-curvature="0"
                   id="path3079"
                   style="fill:none;stroke:#000000;stroke-width:5;stroke-linecap:butt;stroke-linejoin:round;stroke-miterlimit:10;stroke-opacity:1;stroke-dasharray:none"
                   d="m 1341.67,104.168 249.16,0" /></g></g><text
               xml:space="preserve"
               style="font-size:22.39999962px;font-style:normal;font-weight:normal;line-height:125%;letter-spacing:0px;word-spacing:0px;fill:#000000;fill-opacity:1;stroke:none;font-family:Sans"
               x="-170.77484"
               y="127.07012"
               id="text5104"
               sodipodi:linespacing="125%"
               transform="scale(1,-1)"><tspan
                 sodipodi:role="line"
                 id="tspan5106"
                 x="-170.77484"
                 y="127.07012">U(y)</tspan></text>
</g><text
             transform="matrix(0.8,0,0,-0.8,0,112)"
             sodipodi:linespacing="125%"
             id="text5108"
             y="63.739223"
             x="-332.88434"
             style="font-size:40px;font-style:normal;font-weight:normal;line-height:125%;letter-spacing:0px;word-spacing:0px;fill:#000000;fill-opacity:1;stroke:none;font-family:Sans"
             xml:space="preserve"><tspan
               y="63.739223"
               x="-332.88434"
               id="tspan5110"
               sodipodi:role="line">y</tspan></text>
</g></g></g></g></svg>