<?xml version="1.0" encoding="UTF-8" standalone="no"?>
<!-- Created with Inkscape (http://www.inkscape.org/) -->

<svg
   xmlns:dc="http://purl.org/dc/elements/1.1/"
   xmlns:cc="http://creativecommons.org/ns#"
   xmlns:rdf="http://www.w3.org/1999/02/22-rdf-syntax-ns#"
   xmlns:svg="http://www.w3.org/2000/svg"
   xmlns="http://www.w3.org/2000/svg"
   xmlns:sodipodi="http://sodipodi.sourceforge.net/DTD/sodipodi-0.dtd"
   xmlns:inkscape="http://www.inkscape.org/namespaces/inkscape"
   id="svg2985"
   version="1.1"
   inkscape:version="0.48.3.1 r9886"
   width="421.25"
   height="140"
   xml:space="preserve"
   sodipodi:docname="Grass_Base_Nepf_model.eps"><metadata
     id="metadata2991"><rdf:RDF><cc:Work
         rdf:about=""><dc:format>image/svg+xml</dc:format><dc:type
           rdf:resource="http://purl.org/dc/dcmitype/StillImage" /></cc:Work></rdf:RDF></metadata><defs
     id="defs2989"><marker
       inkscape:stockid="Arrow1Lend"
       orient="auto"
       refY="0.0"
       refX="0.0"
       id="Arrow1Lend"
       style="overflow:visible;"><path
         id="path3978"
         d="M 0.0,0.0 L 5.0,-5.0 L -12.5,0.0 L 5.0,5.0 L 0.0,0.0 z "
         style="fill-rule:evenodd;stroke:#000000;stroke-width:1.0pt;"
         transform="scale(0.8) rotate(180) translate(12.5,0)" /></marker><clipPath
       clipPathUnits="userSpaceOnUse"
       id="clipPath3001"><path
         d="m 4.16797,2.5 3365.83003,0 0,1117.5 -3365.83003,0 0,-1117.5 z"
         id="path3003" /></clipPath><clipPath
       clipPathUnits="userSpaceOnUse"
       id="clipPath3019"><path
         d="m 33.332,1044.17 3298.338,0 0,-1040.83797 -3298.338,0 0,1040.83797 z"
         id="path3021" /></clipPath><clipPath
       clipPathUnits="userSpaceOnUse"
       id="clipPath3085"><path
         d="m 4,2 0,1118 3366,0 L 3370,2 4,2 z"
         id="path3087" /></clipPath><clipPath
       clipPathUnits="userSpaceOnUse"
       id="clipPath3111"><path
         d="m 33.332,1044.17 3298.338,0 0,-1040.83797 -3298.338,0 0,1040.83797 z"
         id="path3113" /></clipPath><clipPath
       clipPathUnits="userSpaceOnUse"
       id="clipPath3123"><path
         d="m 4,2 0,1118 3366,0 L 3370,2 4,2 z"
         id="path3125" /></clipPath><clipPath
       clipPathUnits="userSpaceOnUse"
       id="clipPath3155"><path
         d="m 33.332,1044.17 3298.338,0 0,-1040.83797 -3298.338,0 0,1040.83797 z"
         id="path3157" /></clipPath><clipPath
       clipPathUnits="userSpaceOnUse"
       id="clipPath3167"><path
         d="m 4,2 0,1118 3366,0 L 3370,2 4,2 z"
         id="path3169" /></clipPath></defs><sodipodi:namedview
     pagecolor="#ffffff"
     bordercolor="#666666"
     borderopacity="1"
     objecttolerance="10"
     gridtolerance="10"
     guidetolerance="10"
     inkscape:pageopacity="0"
     inkscape:pageshadow="2"
     inkscape:window-width="640"
     inkscape:window-height="480"
     id="namedview2987"
     showgrid="false" /><g
     id="g2993"
     inkscape:groupmode="layer"
     inkscape:label="ink_ext_XXXXXX"
     transform="matrix(1.25,0,0,-1.25,0,140)"><g
       id="g2995"
       transform="matrix(0.12348326,0,0,0.15304885,-36.412702,-28.972559)"><g
         id="g2997"><g
           id="g2999"
           clip-path="url(#clipPath3001)"><path
             d="m 4.16797,2.5 3365.83003,0 0,1117.5 -3365.83003,0 0,-1117.5 z"
             style="fill:#ffffff;fill-opacity:1;fill-rule:nonzero;stroke:none"
             id="path3005"
             inkscape:connector-curvature="0" /><path
             d="m 32.5,4.16797 3298.33,0 0,1040.00003 -3298.33,0 0,-1040.00003 z"
             style="fill:#ffffff;fill-opacity:1;fill-rule:evenodd;stroke:none"
             id="path3007"
             inkscape:connector-curvature="0" /><path
             d="m 32.5,4.16797 0,1040.00203 3298.33,0 0,-1040.00203 -3298.33,0"
             style="fill:none;stroke:#ffffff;stroke-width:4;stroke-linecap:butt;stroke-linejoin:round;stroke-miterlimit:10;stroke-opacity:1;stroke-dasharray:none"
             id="path3009"
             inkscape:connector-curvature="0" /><path
             d="m 32.5,4.16797 3298.33,0"
             style="fill:none;stroke:#000000;stroke-width:4;stroke-linecap:butt;stroke-linejoin:round;stroke-miterlimit:10;stroke-opacity:1;stroke-dasharray:none"
             id="path3011"
             inkscape:connector-curvature="0" /><path
             d="M 32.5,4.16797 32.5,1044.17"
             style="fill:none;stroke:#000000;stroke-width:4;stroke-linecap:butt;stroke-linejoin:round;stroke-miterlimit:10;stroke-opacity:1;stroke-dasharray:none"
             id="path3013"
             inkscape:connector-curvature="0" /></g></g><g
         id="g3015"><g
           id="g3017"
           clip-path="url(#clipPath3019)"><path
             d="m 149.168,4.16797 0,331.66403"
             style="fill:none;stroke:#4dff4d;stroke-width:15;stroke-linecap:butt;stroke-linejoin:round;stroke-miterlimit:10;stroke-opacity:1;stroke-dasharray:none"
             id="path3023"
             inkscape:connector-curvature="0" /><path
             d="m 281.668,4.16797 0,331.66403"
             style="fill:none;stroke:#4dff4d;stroke-width:15;stroke-linecap:butt;stroke-linejoin:round;stroke-miterlimit:10;stroke-opacity:1;stroke-dasharray:none"
             id="path3025"
             inkscape:connector-curvature="0" /><path
             d="m 414.168,4.16797 0,331.66403"
             style="fill:none;stroke:#4dff4d;stroke-width:15;stroke-linecap:butt;stroke-linejoin:round;stroke-miterlimit:10;stroke-opacity:1;stroke-dasharray:none"
             id="path3027"
             inkscape:connector-curvature="0" /><path
             d="m 546.668,4.16797 0,331.66403"
             style="fill:none;stroke:#4dff4d;stroke-width:15;stroke-linecap:butt;stroke-linejoin:round;stroke-miterlimit:10;stroke-opacity:1;stroke-dasharray:none"
             id="path3029"
             inkscape:connector-curvature="0" /><path
             d="m 679.168,4.16797 0,331.66403"
             style="fill:none;stroke:#4dff4d;stroke-width:15;stroke-linecap:butt;stroke-linejoin:round;stroke-miterlimit:10;stroke-opacity:1;stroke-dasharray:none"
             id="path3031"
             inkscape:connector-curvature="0" /><path
             d="m 811.668,4.16797 0,331.66403"
             style="fill:none;stroke:#4dff4d;stroke-width:15;stroke-linecap:butt;stroke-linejoin:round;stroke-miterlimit:10;stroke-opacity:1;stroke-dasharray:none"
             id="path3033"
             inkscape:connector-curvature="0" /><path
             d="m 944.168,4.16797 0,331.66403"
             style="fill:none;stroke:#4dff4d;stroke-width:15;stroke-linecap:butt;stroke-linejoin:round;stroke-miterlimit:10;stroke-opacity:1;stroke-dasharray:none"
             id="path3035"
             inkscape:connector-curvature="0" /><path
             d="m 1076.67,4.16797 0,331.66403"
             style="fill:none;stroke:#4dff4d;stroke-width:15;stroke-linecap:butt;stroke-linejoin:round;stroke-miterlimit:10;stroke-opacity:1;stroke-dasharray:none"
             id="path3037"
             inkscape:connector-curvature="0" /><path
             d="m 1209.17,4.16797 0,331.66403"
             style="fill:none;stroke:#4dff4d;stroke-width:15;stroke-linecap:butt;stroke-linejoin:round;stroke-miterlimit:10;stroke-opacity:1;stroke-dasharray:none"
             id="path3039"
             inkscape:connector-curvature="0" /><path
             d="m 1341.67,4.16797 0,331.66403"
             style="fill:none;stroke:#4dff4d;stroke-width:15;stroke-linecap:butt;stroke-linejoin:round;stroke-miterlimit:10;stroke-opacity:1;stroke-dasharray:none"
             id="path3041"
             inkscape:connector-curvature="0" /><path
             d="m 1474.17,4.16797 0,331.66403"
             style="fill:none;stroke:#4dff4d;stroke-width:15;stroke-linecap:butt;stroke-linejoin:round;stroke-miterlimit:10;stroke-opacity:1;stroke-dasharray:none"
             id="path3043"
             inkscape:connector-curvature="0" /><path
             d="m 1607.5,4.16797 0,331.66403"
             style="fill:none;stroke:#4dff4d;stroke-width:15;stroke-linecap:butt;stroke-linejoin:round;stroke-miterlimit:10;stroke-opacity:1;stroke-dasharray:none"
             id="path3045"
             inkscape:connector-curvature="0" /><path
             d="m 1740,4.16797 0,331.66403"
             style="fill:none;stroke:#4dff4d;stroke-width:15;stroke-linecap:butt;stroke-linejoin:round;stroke-miterlimit:10;stroke-opacity:1;stroke-dasharray:none"
             id="path3047"
             inkscape:connector-curvature="0" /><path
             d="m 1872.5,4.16797 0,331.66403"
             style="fill:none;stroke:#4dff4d;stroke-width:15;stroke-linecap:butt;stroke-linejoin:round;stroke-miterlimit:10;stroke-opacity:1;stroke-dasharray:none"
             id="path3049"
             inkscape:connector-curvature="0" /><path
             d="m 2005,4.16797 0,331.66403"
             style="fill:none;stroke:#4dff4d;stroke-width:15;stroke-linecap:butt;stroke-linejoin:round;stroke-miterlimit:10;stroke-opacity:1;stroke-dasharray:none"
             id="path3051"
             inkscape:connector-curvature="0" /><path
             d="m 2137.5,4.16797 0,331.66403"
             style="fill:none;stroke:#4dff4d;stroke-width:15;stroke-linecap:butt;stroke-linejoin:round;stroke-miterlimit:10;stroke-opacity:1;stroke-dasharray:none"
             id="path3053"
             inkscape:connector-curvature="0" /><path
             d="m 2270,4.16797 0,331.66403"
             style="fill:none;stroke:#4dff4d;stroke-width:15;stroke-linecap:butt;stroke-linejoin:round;stroke-miterlimit:10;stroke-opacity:1;stroke-dasharray:none"
             id="path3055"
             inkscape:connector-curvature="0" /><path
             d="m 2402.5,4.16797 0,331.66403"
             style="fill:none;stroke:#4dff4d;stroke-width:15;stroke-linecap:butt;stroke-linejoin:round;stroke-miterlimit:10;stroke-opacity:1;stroke-dasharray:none"
             id="path3057"
             inkscape:connector-curvature="0" /><path
             d="m 2535,4.16797 0,331.66403"
             style="fill:none;stroke:#4dff4d;stroke-width:15;stroke-linecap:butt;stroke-linejoin:round;stroke-miterlimit:10;stroke-opacity:1;stroke-dasharray:none"
             id="path3059"
             inkscape:connector-curvature="0" /><path
             d="m 2667.5,4.16797 0,331.66403"
             style="fill:none;stroke:#4dff4d;stroke-width:15;stroke-linecap:butt;stroke-linejoin:round;stroke-miterlimit:10;stroke-opacity:1;stroke-dasharray:none"
             id="path3061"
             inkscape:connector-curvature="0" /><path
             d="m 2800,4.16797 0,331.66403"
             style="fill:none;stroke:#4dff4d;stroke-width:15;stroke-linecap:butt;stroke-linejoin:round;stroke-miterlimit:10;stroke-opacity:1;stroke-dasharray:none"
             id="path3063"
             inkscape:connector-curvature="0" /><path
             d="m 2932.5,4.16797 0,331.66403"
             style="fill:none;stroke:#4dff4d;stroke-width:15;stroke-linecap:butt;stroke-linejoin:round;stroke-miterlimit:10;stroke-opacity:1;stroke-dasharray:none"
             id="path3065"
             inkscape:connector-curvature="0" /><path
             d="m 3065,4.16797 0,331.66403"
             style="fill:none;stroke:#4dff4d;stroke-width:15;stroke-linecap:butt;stroke-linejoin:round;stroke-miterlimit:10;stroke-opacity:1;stroke-dasharray:none"
             id="path3067"
             inkscape:connector-curvature="0" /><path
             d="m 3197.5,4.16797 0,331.66403"
             style="fill:none;stroke:#4dff4d;stroke-width:15;stroke-linecap:butt;stroke-linejoin:round;stroke-miterlimit:10;stroke-opacity:1;stroke-dasharray:none"
             id="path3069"
             inkscape:connector-curvature="0" /><path
             d="m 3330.83,4.16797 0,331.66403"
             style="fill:none;stroke:#4dff4d;stroke-width:15;stroke-linecap:butt;stroke-linejoin:round;stroke-miterlimit:10;stroke-opacity:1;stroke-dasharray:none"
             id="path3071"
             inkscape:connector-curvature="0" /><path
             d="m 384.168,367.5 3.332,2.5 4.168,1.668 3.332,1.664 4.168,2.5 4.164,1.668 3.336,2.5 4.164,1.668 3.336,1.664 4.164,2.5 3.336,1.668 4.164,1.668 3.336,2.5 4.164,1.664 3.336,2.5 4.164,1.668 3.336,1.668 4.164,2.5 3.336,1.664 4.164,1.668 3.336,2.5 3.332,1.668 4.168,1.664 3.332,2.5 3.332,1.668 4.168,2.5 3.332,1.668 3.336,1.664 3.332,2.5 4.168,1.668 3.332,1.668 3.332,2.5 3.336,1.664 4.164,2.5 3.336,1.668 3.332,1.668 3.332,2.5 3.336,1.664 3.332,1.668 3.332,2.5 3.336,1.668 3.332,1.664 4.168,2.5 3.332,1.668 3.332,2.5 3.336,1.668 3.332,1.664 3.332,2.5 3.336,1.668 3.332,1.668 2.5,2.5 3.332,1.664 3.336,2.5 3.332,1.668 3.332,1.668 3.336,2.5 3.332,1.664 3.332,1.668 2.5,2.5 3.336,1.668 3.332,2.5 3.332,1.664 3.336,1.668 2.5,2.5 3.332,1.668 3.332,1.664 2.5,2.5 3.336,1.668 3.332,1.668 2.5,2.5 3.332,1.664 3.336,2.5 2.5,1.668 3.332,1.668 2.5,2.5 3.332,1.664 3.336,1.668 2.5,2.5 3.332,1.668 2.5,2.5 3.332,1.664 2.5,1.668 3.336,2.5 2.5,1.668 2.5,1.664 3.332,2.5 2.5,1.668 3.332,1.668 2.5,2.5 2.5,1.664 3.336,2.5 2.5,1.668 2.5,1.668 3.332,2.5 2.5,1.664 2.5,1.668 2.5,2.5 3.332,1.668 2.5,2.5 2.5,1.664 2.5,1.668 2.5,2.5 3.336,1.668 2.5,1.664 2.5,2.5 2.5,1.668 2.5,1.668 2.5,2.5 2.5,1.664 2.5,2.5 2.5,1.668 2.5,1.668 2.5,2.5 2.5,1.664 2.5,1.668 2.5,2.5 2.5,1.668 2.5,2.5 2.5,1.664 2.5,1.668 2.5,2.5 2.5,1.668 2.5,1.664 2.5,2.5 2.5,1.668 1.664,1.668 2.5,2.5 2.5,1.664 2.5,2.5 1.668,1.668 2.5,1.668 2.5,2.5 2.5,1.664 1.668,1.668 2.5,2.5 2.5,1.668 1.664,2.5 2.5,1.664 2.5,1.668 1.668,2.5 2.5,1.668 2.5,1.664 1.668,2.5 2.5,1.668 1.664,1.668 2.5,2.5 1.668,1.664 2.5,2.5 1.668,1.668 2.5,1.668 1.664,2.5 2.5,1.664 1.668,1.668 1.668,2.5 2.5,1.668 1.664,2.5 2.5,1.664 1.668,1.668 1.668,2.5 2.5,1.668 1.664,1.664 1.668,2.5 1.668,1.668 2.5,2.5 1.664,1.668 1.668,1.664 1.668,2.5 2.5,1.668 1.664,1.668 1.668,2.5 1.668,1.664 1.664,1.668 1.668,2.5 1.668,1.668 2.5,2.5 1.664,1.664 1.668,1.668 1.668,2.5 1.664,1.668 1.668,1.664 1.668,2.5 1.664,1.668 1.668,2.5 1.668,1.668 1.664,1.664 1.668,2.5 1.668,1.668 0.832,1.668 1.668,2.5 1.664,1.664 1.668,1.668 1.668,2.5 1.664,1.668 1.668,2.5 0.832,1.664 1.668,1.668 1.668,2.5 1.664,1.668 0.836,1.664 1.664,2.5 1.668,1.668 1.668,2.5 0.832,1.668 1.668,1.664 1.664,2.5 0.836,1.668 1.664,1.668 0.836,2.5 1.664,1.664 1.668,1.668 0.832,2.5 1.668,1.668 0.832,2.5 1.668,1.664 0.832,1.668 1.668,2.5 0.832,1.668 1.668,1.664 0.832,2.5 1.668,1.668 0.832,2.5 0.836,1.668 1.664,1.664 0.836,2.5 1.664,1.668 0.836,1.668 0.832,2.5 0.832,1.664 1.668,1.668 0.832,2.5 0.836,1.668 1.664,2.5 0.836,1.664 0.832,1.668 0.832,2.5 0.836,1.668 1.664,1.664 0.836,2.5 0.832,1.668 0.832,2.5 0.836,1.668 0.832,1.664 0.832,2.5 0.836,1.668 1.664,1.668 0.836,2.5 0.832,1.664 0.832,1.668 0.836,2.5 0.832,1.668 0.832,2.5 0.836,1.664 0,1.668 0.832,2.5 0.832,1.668 0.836,1.664 0.832,2.5 0.832,1.668 0.836,2.5 0.832,1.668 0,1.664 0.832,2.5 0.836,1.668 0.832,1.668 0.832,2.5 0,1.664 0.836,1.668 0.832,2.5 0.832,1.668 0,2.5 0.836,1.664 0.832,1.668 0,2.5 0.832,1.668 0,1.664 0.836,2.5 0.832,1.668 0,2.5 0.832,1.668 0,1.664 0.836,2.5 0,1.668 0.832,1.668 0,2.5 0.832,1.664 0,2.5 0.836,1.668 0,4.168 0.832,1.664 0,1.668 0.832,2.5 0,3.332 0.836,2.5 0,5.836 0.832,1.664 0,5.836 0.832,2.5 0,10 0.836,1.664 0,14.168"
             style="fill:none;stroke:#000000;stroke-width:10;stroke-linecap:butt;stroke-linejoin:round;stroke-miterlimit:10;stroke-opacity:1;stroke-dasharray:none"
             id="path3073"
             inkscape:connector-curvature="0" /><path
             d="m 145.832,4.16797 0,24.16403 0.836,1.668 0,15.832 0.832,2.5 0,9.168 0.832,2.5 0,7.5 0.836,2.5 0,5.832 0.832,1.668 0,4.168 0.832,1.664 0,5.836 0.836,2.5 0,3.332 0.832,2.5 0,4.168 0.832,1.664 0,1.668 0.836,2.5 0,3.332 0.832,2.5 0,1.668 0.832,2.5 0,1.668 0.836,1.664 0,2.5 0.832,1.668 0,1.668 0.832,2.5 0,1.664 0.836,1.668 0,2.5 0.832,1.668 0,2.5 0.832,1.664 0,1.668 0.836,2.5 0.832,1.668 0,1.664 0.832,2.5 0,1.668 0.836,2.5 0.832,1.668 0,1.664 0.832,2.5 0.836,1.668 0.832,1.668 0,2.5 0.832,1.664 0.836,1.668 0.832,2.5 0.832,1.668 0,2.5 0.836,1.664 0.832,1.668 0.832,2.5 0.836,1.668 0.832,1.664 0.832,2.5 0.836,1.668 0.832,2.5 0.832,1.668 0.836,1.664 0.832,2.5 0.832,1.668 0.836,1.668 0.832,2.5 0.832,1.664 0.836,1.668 0.832,2.5 1.668,1.668 0.832,2.5 0.832,1.664 0.836,1.668 1.664,2.5 0.836,1.668 0.832,1.664 1.668,2.5 0.832,1.668 0.832,2.5 1.668,1.668 0.832,1.664 1.668,2.5 0.832,1.668 1.668,1.668 1.668,2.5 0.832,1.664 1.668,2.5 1.664,1.668 1.668,1.668 0.832,2.5 1.668,1.664 1.668,1.668 1.664,2.5 1.668,1.668 1.668,1.664 1.664,2.5 1.668,1.668 1.668,2.5 1.664,1.668 2.5,1.664 1.668,2.5 1.668,1.668 2.5,1.668 1.664,2.5 1.668,1.664 2.5,2.5 2.5,1.668 1.668,1.668 2.5,2.5 2.5,1.664 2.5,1.668 1.664,2.5 2.5,1.668 2.5,1.664 2.5,2.5 3.336,1.668 2.5,2.5 2.5,1.668 3.332,1.664 2.5,2.5 3.332,1.668 2.5,1.668 3.336,2.5 3.332,1.664 3.332,2.5 3.336,1.668 3.332,1.668 3.332,2.5 4.168,1.664 3.332,1.668 3.336,2.5 4.164,1.668 4.168,1.664 4.168,2.5 4.164,1.668 4.168,2.5 3.332,1.668 4.168,1.664 4.168,2.5 4.164,1.668 4.168,1.668 3.332,2.5 4.168,1.664 4.168,2.5 4.164,1.668 3.336,1.668 4.164,2.5 4.168,1.664 4.168,1.668"
             style="fill:none;stroke:#000000;stroke-width:10;stroke-linecap:butt;stroke-linejoin:round;stroke-miterlimit:10;stroke-opacity:1;stroke-dasharray:none"
             id="path3075"
             inkscape:connector-curvature="0" /><path
             d="m 1341.67,104.168 0,145.832"
             style="fill:none;stroke:#000000;stroke-width:5;stroke-linecap:butt;stroke-linejoin:round;stroke-miterlimit:10;stroke-opacity:1;stroke-dasharray:none"
             id="path3077"
             inkscape:connector-curvature="0" /><path
             d="m 1341.67,104.168 249.16,0"
             style="fill:none;stroke:#000000;stroke-width:5;stroke-linecap:butt;stroke-linejoin:round;stroke-miterlimit:10;stroke-opacity:1;stroke-dasharray:none"
             id="path3079"
             inkscape:connector-curvature="0" /></g></g><g
         id="g3081"><g
           id="g3083"
           clip-path="url(#clipPath3085)"><g
             id="g3089"
             transform="scale(10,10)"><text
               transform="matrix(1,0,0,-1,137.667,18.5832)"
               id="text3091"><tspan
                 style="font-size:7px;font-variant:normal;font-weight:normal;writing-mode:lr-tb;fill:#000000;fill-opacity:1;fill-rule:nonzero;stroke:none;font-family:mwa_cmr10;-inkscape-font-specification:mwa_cmr10"
                 x="0"
                 y="0"
                 id="tspan3093">ˆ</tspan></text>
<text
               transform="matrix(1,0,0,-1,137.5002,17.3332)"
               id="text3095"><tspan
                 style="font-size:7px;font-variant:normal;font-weight:normal;writing-mode:lr-tb;fill:#000000;fill-opacity:1;fill-rule:nonzero;stroke:none;font-family:mwa_cmmi10;-inkscape-font-specification:mwa_cmmi10"
                 x="0"
                 y="0"
                 id="tspan3097">t</tspan></text>
<text
               transform="matrix(1,0,0,-1,146.167,10.5832)"
               id="text3099"><tspan
                 style="font-size:7px;font-variant:normal;font-weight:normal;writing-mode:lr-tb;fill:#000000;fill-opacity:1;fill-rule:nonzero;stroke:none;font-family:mwa_cmr10;-inkscape-font-specification:mwa_cmr10"
                 x="0"
                 y="0"
                 id="tspan3101">ˆ</tspan></text>
<text
               transform="matrix(1,0,0,-1,145.75021,10.5832)"
               id="text3103"><tspan
                 style="font-size:7px;font-variant:normal;font-weight:normal;writing-mode:lr-tb;fill:#000000;fill-opacity:1;fill-rule:nonzero;stroke:none;font-family:mwa_cmmi10;-inkscape-font-specification:mwa_cmmi10"
                 x="0"
                 y="0"
                 id="tspan3105">n</tspan></text>
</g></g></g><g
         id="g3107"><g
           id="g3109"
           clip-path="url(#clipPath3111)"><path
             d="m 811.668,104.168 0,198.332"
             style="fill:none;stroke:#000000;stroke-width:5;stroke-linecap:butt;stroke-linejoin:round;stroke-miterlimit:10;stroke-opacity:1;stroke-dasharray:none"
             id="path3115"
             inkscape:connector-curvature="0" /><path
             d="m 811.668,104.168 248.332,0"
             style="fill:none;stroke:#000000;stroke-width:5;stroke-linecap:butt;stroke-linejoin:round;stroke-miterlimit:10;stroke-opacity:1;stroke-dasharray:none"
             id="path3117"
             inkscape:connector-curvature="0" /></g></g><g
         id="g3119"><g
           id="g3121"
           clip-path="url(#clipPath3123)"><g
             id="g3127"
             transform="scale(10,10)"><text
               transform="matrix(1,0,0,-1,84.4168,20.9168)"
               id="text3129"><tspan
                 style="font-size:7px;font-variant:normal;font-weight:normal;writing-mode:lr-tb;fill:#000000;fill-opacity:1;fill-rule:nonzero;stroke:none;font-family:mwa_cmr10;-inkscape-font-specification:mwa_cmr10"
                 x="0"
                 y="0"
                 id="tspan3131">(</tspan></text>
<text
               transform="matrix(1,0,0,-1,87.58321,20.9168)"
               id="text3133"><tspan
                 style="font-size:7px;font-variant:normal;font-weight:normal;writing-mode:lr-tb;fill:#000000;fill-opacity:1;fill-rule:nonzero;stroke:none;font-family:mwa_cmmi10;-inkscape-font-specification:mwa_cmmi10"
                 x="0 3.5 7"
                 y="0"
                 sodipodi:role="line"
                 id="tspan3135">y,v</tspan></text>
<text
               transform="matrix(1,0,0,-1,98.00001,20.9168)"
               id="text3137"><tspan
                 style="font-size:7px;font-variant:normal;font-weight:normal;writing-mode:lr-tb;fill:#000000;fill-opacity:1;fill-rule:nonzero;stroke:none;font-family:mwa_cmr10;-inkscape-font-specification:mwa_cmr10"
                 x="0"
                 y="0"
                 id="tspan3139">)</tspan><tspan
                 style="font-size:7px;font-variant:normal;font-weight:normal;writing-mode:lr-tb;fill:#000000;fill-opacity:1;fill-rule:nonzero;stroke:none;font-family:mwa_cmr10;-inkscape-font-specification:mwa_cmr10"
                 x="-1.9168"
                 y="9.5835896"
                 id="tspan3141">(</tspan></text>
<text
               transform="matrix(1,0,0,-1,99.25001,11.33321)"
               id="text3143"><tspan
                 style="font-size:7px;font-variant:normal;font-weight:normal;writing-mode:lr-tb;fill:#000000;fill-opacity:1;fill-rule:nonzero;stroke:none;font-family:mwa_cmmi10;-inkscape-font-specification:mwa_cmmi10"
                 x="0 4.0000029 7.5000029"
                 y="0"
                 sodipodi:role="line"
                 id="tspan3145">x,u</tspan></text>
<text
               transform="matrix(1,0,0,-1,110.75001,11.33321)"
               id="text3147"><tspan
                 style="font-size:7px;font-variant:normal;font-weight:normal;writing-mode:lr-tb;fill:#000000;fill-opacity:1;fill-rule:nonzero;stroke:none;font-family:mwa_cmr10;-inkscape-font-specification:mwa_cmr10"
                 x="0"
                 y="0"
                 id="tspan3149">)</tspan></text>
</g></g></g><g
         id="g3151"><g
           id="g3153"
           clip-path="url(#clipPath3155)"><path
             d="m 33.332,995.832 949.168,0"
             style="fill:none;stroke:#000000;stroke-width:5;stroke-linecap:butt;stroke-linejoin:round;stroke-miterlimit:10;stroke-opacity:1;stroke-dasharray:5, 40;stroke-dashoffset:0"
             id="path3159"
             inkscape:connector-curvature="0" /><path
             d="m 33.332,343.332 421.668,0"
             style="fill:none;stroke:#000000;stroke-width:5;stroke-linecap:butt;stroke-linejoin:round;stroke-miterlimit:10;stroke-opacity:1;stroke-dasharray:5, 40;stroke-dashoffset:0"
             id="path3161"
             inkscape:connector-curvature="0" /></g></g><g
         id="g3163"><g
           id="g3165"
           clip-path="url(#clipPath3167)"><g
             id="g3171"
             transform="scale(10,10)"><text
               transform="matrix(1,0,0,-1,9.8332,37.3332)"
               id="text3173"><tspan
                 style="font-size:9px;font-variant:normal;font-weight:normal;writing-mode:lr-tb;fill:#000000;fill-opacity:1;fill-rule:nonzero;stroke:none;font-family:mwa_cmmi10;-inkscape-font-specification:mwa_cmmi10"
                 x="0"
                 y="0"
                 id="tspan3175">y</tspan></text>
<text
               transform="matrix(1,0,0,-1,16.66679,37.3332)"
               id="text3177"><tspan
                 style="font-size:9px;font-variant:normal;font-weight:normal;writing-mode:lr-tb;fill:#000000;fill-opacity:1;fill-rule:nonzero;stroke:none;font-family:mwa_cmr10;-inkscape-font-specification:mwa_cmr10"
                 x="0"
                 y="0"
                 id="tspan3179">=</tspan></text>
<text
               transform="matrix(1,0,0,-1,26.3332,37.3332)"
               id="text3181"><tspan
                 style="font-size:9px;font-variant:normal;font-weight:normal;writing-mode:lr-tb;fill:#000000;fill-opacity:1;fill-rule:nonzero;stroke:none;font-family:mwa_cmmi10;-inkscape-font-specification:mwa_cmmi10"
                 x="0"
                 y="0"
                 id="tspan3183">h</tspan></text>
<text
               transform="matrix(1,0,0,-1,31.0832,35.91679)"
               id="text3185"><tspan
                 style="font-size:6.30000019px;font-variant:normal;font-weight:normal;writing-mode:lr-tb;fill:#000000;fill-opacity:1;fill-rule:nonzero;stroke:none;font-family:mwa_cmmi10;-inkscape-font-specification:mwa_cmmi10"
                 x="0"
                 y="0"
                 id="tspan3187">g</tspan></text>
<text
               transform="matrix(1,0,0,-1,29.66679,99.83319)"
               id="text3189"><tspan
                 style="font-size:9px;font-variant:normal;font-weight:normal;writing-mode:lr-tb;fill:#000000;fill-opacity:1;fill-rule:nonzero;stroke:none;font-family:mwa_cmmi10;-inkscape-font-specification:mwa_cmmi10"
                 x="0"
                 y="0"
                 id="tspan3191">y</tspan></text>
<text
               transform="matrix(1,0,0,-1,36.49999,99.83319)"
               id="text3193"><tspan
                 style="font-size:9px;font-variant:normal;font-weight:normal;writing-mode:lr-tb;fill:#000000;fill-opacity:1;fill-rule:nonzero;stroke:none;font-family:mwa_cmr10;-inkscape-font-specification:mwa_cmr10"
                 x="0 9.6668015"
                 y="0"
                 sodipodi:role="line"
                 id="tspan3195">=2</tspan></text>
<text
               transform="matrix(1,0,0,-1,50.91679,99.83319)"
               id="text3197"><tspan
                 style="font-size:9px;font-variant:normal;font-weight:normal;writing-mode:lr-tb;fill:#000000;fill-opacity:1;fill-rule:nonzero;stroke:none;font-family:mwa_cmmi10;-inkscape-font-specification:mwa_cmmi10"
                 x="0"
                 y="0"
                 id="tspan3199">H</tspan></text>
</g></g></g></g><path
       style="fill:none;stroke:#000000;stroke-width:0.9;stroke-linecap:butt;stroke-linejoin:miter;stroke-opacity:1;marker-end:url(#Arrow1Lend);stroke-miterlimit:4;stroke-dasharray:5.4,0.9;stroke-dashoffset:0"
       d="m -39.387876,-4.199683 145.534866,0 0,0"
       id="path3201"
       inkscape:connector-curvature="0"
       transform="matrix(0.8,0,0,-0.8,0,112)" /><path
       inkscape:connector-curvature="0"
       id="path4415"
       d="m -31.510301,102.55975 112.997155,0 0,0"
       style="fill:none;stroke:#000000;stroke-width:0.708;stroke-linecap:butt;stroke-linejoin:miter;stroke-miterlimit:4;stroke-opacity:1;stroke-dasharray:4.248,0.708;stroke-dashoffset:0;marker-end:url(#Arrow1Lend)" /><path
       style="fill:none;stroke:#000000;stroke-width:0.6856;stroke-linecap:butt;stroke-linejoin:miter;stroke-miterlimit:4;stroke-opacity:1;stroke-dasharray:4.1136,0.6856;stroke-dashoffset:0;marker-end:url(#Arrow1Lend)"
       d="m -31.510301,88.15975 106.545254,0 0,0"
       id="path4417"
       inkscape:connector-curvature="0" /><path
       inkscape:connector-curvature="0"
       id="path4419"
       d="m -31.510301,72.15975 95.836708,0 0,0"
       style="fill:none;stroke:#000000;stroke-width:0.72581744;stroke-linecap:butt;stroke-linejoin:miter;stroke-miterlimit:4;stroke-opacity:1;stroke-dasharray:4.35490476, 0.72581746;stroke-dashoffset:0;marker-end:url(#Arrow1Lend)" /><path
       style="fill:none;stroke:#000000;stroke-width:0.67134857;stroke-linecap:butt;stroke-linejoin:miter;stroke-miterlimit:4;stroke-opacity:1;stroke-dasharray:4.02809136, 0.67134856;stroke-dashoffset:0;marker-end:url(#Arrow1Lend)"
       d="m -31.510301,57.75975 81.992322,0 0,0"
       id="path4421"
       inkscape:connector-curvature="0" /><path
       inkscape:connector-curvature="0"
       id="path4423"
       d="m -31.510301,43.35975 64.94919,0 0,0"
       style="fill:none;stroke:#000000;stroke-width:0.59751433;stroke-linecap:butt;stroke-linejoin:miter;stroke-miterlimit:4;stroke-opacity:1;stroke-dasharray:3.58508608, 0.59751435;stroke-dashoffset:0;marker-end:url(#Arrow1Lend)" /><path
       style="fill:none;stroke:#000000;stroke-width:0.5353508;stroke-linecap:butt;stroke-linejoin:miter;stroke-miterlimit:4;stroke-opacity:1;stroke-dasharray:3.21210482, 0.5353508;stroke-dashoffset:0;marker-end:url(#Arrow1Lend)"
       d="m -31.510301,33.75975 52.137954,0 0,0"
       id="path4425"
       inkscape:connector-curvature="0" /><path
       inkscape:connector-curvature="0"
       id="path4427"
       d="m -31.510301,19.35975 29.7213911,0 0,0"
       style="fill:none;stroke:#000000;stroke-width:0.564;stroke-linecap:butt;stroke-linejoin:miter;stroke-miterlimit:4;stroke-opacity:1;stroke-dasharray:3.384,0.564;stroke-dashoffset:0;marker-end:url(#Arrow1Lend)" /><path
       style="fill:none;stroke:#000000;stroke-width:0.4744;stroke-linecap:butt;stroke-linejoin:miter;stroke-miterlimit:4;stroke-opacity:1;stroke-dasharray:2.8464,0.4744;stroke-dashoffset:0;marker-end:url(#Arrow1Lend)"
       d="m -31.510301,6.55975 17.948944,0 0,0"
       id="path4429"
       inkscape:connector-curvature="0" /><path
       inkscape:connector-curvature="0"
       id="path4431"
       d="m -31.510301,-7.84025 14.764257,0 0,0"
       style="fill:none;stroke:#000000;stroke-width:0.4448;stroke-linecap:butt;stroke-linejoin:miter;stroke-miterlimit:4;stroke-opacity:1;stroke-dasharray:2.6688,0.4448;stroke-dashoffset:0;marker-end:url(#Arrow1Lend)" /><path
       style="fill:none;stroke:#000000;stroke-width:0.4296;stroke-linecap:butt;stroke-linejoin:miter;stroke-miterlimit:4;stroke-opacity:1;stroke-dasharray:2.5776,0.4296;stroke-dashoffset:0;marker-end:url(#Arrow1Lend)"
       d="m -31.510301,-19.04025 13.21775,0 0,0"
       id="path4433"
       inkscape:connector-curvature="0" /><text
       xml:space="preserve"
       style="font-size:22.35620689px;font-style:normal;font-weight:normal;line-height:125%;letter-spacing:0px;word-spacing:0px;fill:#000000;fill-opacity:1;stroke:none;font-family:Sans"
       x="-4.6640019"
       y="60.134708"
       id="text4435"
       sodipodi:linespacing="125%"
       transform="scale(1.1450959,-0.87328934)"><tspan
         sodipodi:role="line"
         id="tspan4437"
         x="-4.6640019"
         y="60.134708">U(y)</tspan></text>
</g></svg>